<svg version="1.1" id="Layer_1" xmlns="http://www.w3.org/2000/svg" xmlns:xlink="http://www.w3.org/1999/xlink" x="0px" y="0px"
	 width="100%" viewBox="0 0 656 704" enable-background="new 0 0 656 704" xml:space="preserve">
<path fill="#FFFFFF" opacity="1.000000" stroke="none" 
	d="
M122.000061,486.100037 
	C102.334236,486.107849 83.168411,486.119690 64.002594,486.111725 
	C62.172726,486.110992 60.305622,486.195465 58.520618,485.877045 
	C54.500710,485.159912 51.733486,483.022186 51.768562,478.561859 
	C51.800262,474.530975 54.742992,471.824280 59.438881,471.734344 
	C67.102562,471.587555 74.770737,471.671143 82.437019,471.666260 
	C90.769981,471.660950 99.103104,471.693787 107.435760,471.643219 
	C109.209625,471.632446 111.133575,472.112335 112.667168,470.683655 
	C113.049698,469.074646 111.754883,468.703552 110.813164,468.145752 
	C102.108597,462.989685 94.651535,456.369995 88.354065,448.506561 
	C86.182144,445.794525 84.188705,445.054657 80.687920,445.960175 
	C67.802704,449.292938 51.881023,443.843475 45.240856,434.098724 
	C47.709587,431.628967 51.578526,435.503723 54.271511,431.698914 
	C45.409546,426.513550 39.531414,418.983948 37.680500,408.730865 
	C37.013355,405.035278 36.130596,401.305023 37.668495,397.204620 
	C41.726585,398.978455 42.872700,403.778503 47.530952,404.688751 
	C46.077805,396.232361 45.396606,387.900452 49.581768,379.149323 
	C54.552296,383.548309 57.267742,390.108643 64.271698,391.992340 
	C65.131027,389.211548 64.775040,386.560760 64.588379,384.012512 
	C58.632828,302.707886 119.373329,229.102081 194.503250,211.310516 
	C207.175385,208.309631 220.083450,207.086578 233.000305,205.741714 
	C238.641586,205.154388 241.114166,207.170074 243.338394,212.266281 
	C253.654816,235.903519 271.312195,251.174118 296.647949,257.099274 
	C308.475342,259.865265 319.982361,258.838806 332.490265,253.514267 
	C323.072327,253.110580 315.009766,253.786652 306.987579,252.388153 
	C273.223419,246.501999 246.081772,214.901978 246.700851,181.891937 
	C247.097122,160.761581 263.354797,144.496445 284.515625,143.621948 
	C302.353943,142.884735 317.328949,149.922394 331.035461,160.280838 
	C340.004456,167.059006 347.420135,175.412399 353.292358,185.069656 
	C354.661743,187.321732 356.168213,189.490509 357.603912,191.685806 
	C358.175720,191.371063 358.652527,191.248795 358.670227,191.078690 
	C359.384216,184.225372 359.373840,184.161819 366.935760,183.555603 
	C373.407227,183.036819 379.890839,182.664841 386.371460,182.267410 
	C389.287537,182.088547 391.924194,183.286087 394.593018,184.183258 
	C413.407013,190.508057 432.442566,195.882889 452.233002,198.215912 
	C459.376495,199.058029 466.537933,199.002579 473.694885,198.908279 
	C476.941864,198.865494 479.375488,199.890167 481.677460,202.166824 
	C492.363922,212.735703 502.082245,224.112808 511.191254,236.065445 
	C519.452087,246.905167 519.750183,257.804291 513.225891,269.566376 
	C505.153595,284.119354 493.593506,294.698700 478.451294,301.323303 
	C451.793762,312.985718 424.480011,316.869873 396.298279,307.233459 
	C386.319794,303.821381 377.070282,298.870819 368.509735,292.662872 
	C366.539551,291.234100 364.763641,289.354156 361.871307,289.744110 
	C382.675507,317.845123 411.522186,326.493469 445.219086,322.903351 
	C442.550232,350.209778 395.159943,407.934174 373.029510,411.019409 
	C370.965912,397.462036 373.880585,384.146484 375.954407,370.446899 
	C372.130981,370.781647 371.486572,373.136261 370.486206,374.851868 
	C357.754089,396.686462 359.968994,430.142120 375.336456,450.141144 
	C378.013641,453.625153 381.475769,455.065521 385.764252,454.915009 
	C389.921234,454.769135 394.074432,454.456360 398.200043,455.478180 
	C405.687134,457.332581 411.845612,461.114471 415.225891,468.195862 
	C417.186920,472.304016 420.342804,471.854706 423.631378,471.490784 
	C426.126465,471.214661 425.735992,469.354248 425.195526,467.679474 
	C423.459351,462.299255 420.378662,457.824707 415.941376,454.320587 
	C413.867615,452.682922 411.708771,451.152954 409.825500,449.750671 
	C409.385223,447.730499 410.613159,446.946106 411.592560,446.106140 
	C421.835876,437.320526 432.131378,428.595520 442.342468,419.772736 
	C445.331268,417.190277 448.582764,416.164185 452.486572,416.836334 
	C457.550476,417.708191 459.632172,413.306427 462.546326,410.665161 
	C464.925415,408.508850 462.363861,406.316803 461.449371,404.403870 
	C440.505463,360.591614 469.603760,309.853394 518.062927,305.595703 
	C554.656555,302.380524 588.008911,328.103912 592.445435,366.835297 
	C597.062378,407.142548 564.932190,443.763031 524.228394,443.884857 
	C508.300018,443.932526 493.719330,439.225891 481.144287,429.022858 
	C479.506561,427.694031 478.036224,424.680450 475.342773,426.444000 
	C472.374359,428.387573 468.324738,430.226318 468.485718,434.367371 
	C468.721619,440.434692 465.239075,443.819489 461.207428,447.224731 
	C452.072998,454.940155 443.002136,462.730835 434.129669,471.652466 
	C436.522705,471.652466 438.915771,471.651978 441.308807,471.652557 
	C471.640839,471.659668 501.972839,471.663696 532.304871,471.682281 
	C534.135376,471.683380 536.016113,471.555328 537.785339,471.917511 
	C541.041199,472.584045 543.064941,474.598053 543.304321,478.090759 
	C543.539307,481.518585 542.015381,483.905975 538.873718,485.128296 
	C535.859375,486.301056 532.648010,486.080353 529.480957,486.080444 
	C393.820648,486.083771 258.160370,486.091461 122.000061,486.100037 
M515.222351,324.516815 
	C487.914093,329.446411 472.534546,353.633881 473.290161,375.041748 
	C474.043640,396.390167 484.158813,412.164856 503.417053,420.778961 
	C521.881165,429.037903 540.111206,426.833374 555.873596,413.592438 
	C571.933350,400.101776 577.969299,382.662292 573.004211,362.075500 
	C567.392212,338.806549 545.313171,320.485321 515.222351,324.516815 
M289.930267,388.331818 
	C289.283936,385.553192 289.265015,382.573029 287.530426,379.889252 
	C285.384186,381.724243 285.485291,383.921265 285.350739,386.046753 
	C284.464569,400.043365 287.603149,413.144226 294.057251,425.527802 
	C296.865662,430.916382 296.654022,431.297821 291.084595,433.139801 
	C275.851990,438.177795 260.226013,441.516357 244.289841,443.036713 
	C238.205109,443.617249 231.958878,445.360229 225.648956,443.529785 
	C225.885727,440.439178 227.713776,438.592896 228.957733,436.504333 
	C239.929611,418.082855 243.473999,398.471588 238.627838,377.461426 
	C231.543289,346.746796 204.310272,324.600861 174.318893,325.441162 
	C167.488098,325.632538 160.696503,326.651276 154.510941,330.432251 
	C187.786560,328.319275 212.876785,340.757202 224.631775,372.594971 
	C236.169876,403.845276 226.537994,430.600342 201.975998,452.275269 
	C203.809921,454.212524 205.753983,453.724335 207.512939,453.730011 
	C218.008865,453.764038 228.507187,453.576385 239.000626,453.734344 
	C251.064423,453.915955 261.226135,457.930237 267.265228,469.173004 
	C268.565155,471.592987 270.494110,471.666199 272.717072,471.664856 
	C295.208862,471.651428 317.700623,471.669830 340.192383,471.641479 
	C341.939484,471.639282 343.918671,472.106171 345.513580,469.593079 
	C340.640656,465.101013 335.638336,460.588531 330.744720,455.961151 
	C311.109619,437.394470 296.018066,416.053253 289.930267,388.331818 
M267.481873,201.992462 
	C280.564484,232.618240 317.707397,243.083572 336.715820,232.874649 
	C327.998871,229.490631 318.990936,227.432709 312.768646,219.709427 
	C319.720764,216.536896 326.645691,218.695053 334.327148,216.639755 
	C326.416870,208.271515 319.352234,200.797913 312.287598,193.324310 
	C312.613068,192.860886 312.938507,192.397476 313.263947,191.934052 
	C323.911011,191.643051 333.069397,196.204758 342.573364,202.398376 
	C340.915344,196.981277 338.224487,193.235794 335.534760,189.526993 
	C325.128174,175.177689 311.994415,164.538162 294.310638,160.767410 
	C278.330475,157.359924 265.256134,165.836761 263.466278,180.383713 
	C262.568146,187.683548 264.358124,194.597244 267.481873,201.992462 
M424.812256,227.283630 
	C428.806732,233.658203 433.079041,235.071075 440.509857,232.474854 
	C448.564575,229.660645 449.214264,228.159714 445.681122,220.528976 
	C442.826599,214.363892 437.099274,211.179291 431.683014,212.745544 
	C425.583344,214.509476 423.382568,218.743042 424.812256,227.283630 
z"/>
<path fill="#FFFFFF" opacity="1.000000" stroke="none" 
	d="
M445.134308,115.012558 
	C449.292389,124.535011 452.169220,134.099976 455.177734,143.626984 
	C456.339417,147.305740 455.555634,149.363327 451.877411,151.013870 
	C443.523285,154.762665 434.754272,157.269821 426.146698,160.408432 
	C435.607697,160.621017 444.815552,159.038620 453.739838,156.128723 
	C458.020111,154.733078 461.616486,155.072144 465.632202,157.058136 
	C477.122925,162.740921 488.825134,167.994370 500.375763,173.558670 
	C503.443451,175.036499 507.476685,176.378540 506.960358,180.722931 
	C506.428101,185.201370 502.424866,186.452484 498.620270,187.485214 
	C483.899078,191.481201 468.906891,190.947586 453.961578,189.756531 
	C434.078705,188.171982 415.072510,182.490204 396.330475,176.039185 
	C390.244812,173.944519 384.195648,173.948730 378.099762,174.515213 
	C371.952271,175.086487 365.792603,175.108063 359.659576,175.605972 
	C356.601135,175.854294 354.715302,174.944183 353.054718,172.373077 
	C342.866119,156.597916 328.927155,145.434143 311.228821,139.096725 
	C308.049561,137.958298 306.984650,136.479233 307.475952,132.854019 
	C309.831940,115.470634 314.301514,98.932465 324.893555,84.548805 
	C325.433472,83.815628 326.401520,83.166718 325.754181,81.460304 
	C319.103394,86.169098 314.641266,92.431557 310.961975,99.300720 
	C305.960541,108.638222 302.818848,118.667465 301.446045,129.115387 
	C300.762146,134.320312 298.729004,135.743393 293.667328,135.154160 
	C286.873291,134.363251 280.032440,134.841965 273.376251,136.806152 
	C272.149536,137.168152 270.822998,137.191818 268.583618,137.506317 
	C274.188293,108.029762 290.007599,87.442497 316.850647,75.253304 
	C316.495911,74.475899 316.419037,73.929070 316.105225,73.675575 
	C309.644287,68.456352 307.961060,63.645519 310.611176,57.834679 
	C313.359344,51.808865 320.245483,48.223293 327.154938,49.186188 
	C333.207855,50.029713 338.738953,52.278614 343.764801,55.659988 
	C346.114105,57.240604 347.948547,57.505844 350.497833,55.866089 
	C354.394531,53.359638 358.799255,53.095108 362.797485,55.646702 
	C365.191406,57.174442 366.867676,56.921875 369.041595,55.376980 
	C373.969604,51.874928 379.391022,49.298233 385.355530,48.104568 
	C395.319000,46.110596 404.018433,53.328625 403.383179,62.741463 
	C403.108002,66.819214 399.910706,68.941200 397.406342,72.536125 
	C419.393829,79.964134 436.047424,93.075310 445.134308,115.012558 
M399.902740,154.141068 
	C399.496124,149.172302 399.262878,144.182053 398.650757,139.238739 
	C396.746826,123.862488 394.213348,108.618141 387.723907,94.356453 
	C384.845825,88.031456 380.840057,82.529457 375.633667,77.942352 
	C381.939270,88.514893 385.798523,99.924263 388.323364,111.863899 
	C391.635132,127.524475 392.769714,143.440674 394.066711,159.340454 
	C394.234680,161.399338 394.209747,163.495743 397.311554,163.073578 
	C399.803711,162.734406 400.777588,161.339508 400.555267,158.968018 
	C400.431335,157.645920 400.201202,156.333771 399.902740,154.141068 
M330.351837,66.650993 
	C333.204498,66.214828 336.057159,65.778664 340.063843,65.166046 
	C334.527496,61.093529 329.786469,58.739624 324.003204,59.309734 
	C321.854828,59.521526 320.017212,60.575493 319.786224,62.810646 
	C319.569489,64.907829 321.665497,65.200829 323.157745,65.819221 
	C325.197510,66.664482 327.341064,66.711998 330.351837,66.650993 
M378.988708,64.931076 
	C382.318542,64.996239 385.691986,65.297523 388.927765,64.374596 
	C390.732117,63.859943 393.393158,63.484734 392.923248,60.808067 
	C392.492188,58.352848 390.053223,57.308464 387.869659,57.687202 
	C382.877991,58.553024 378.295288,60.532333 373.961639,64.474617 
	C375.888794,64.672684 377.034210,64.790398 378.988708,64.931076 
z"/>
<path fill="#000000" opacity="1.000000" stroke="none" 
	d="
M536.404968,545.284668 
	C534.689636,546.639587 533.234680,547.735352 531.388794,549.125549 
	C533.116333,553.607788 536.322571,557.289673 538.375366,561.553040 
	C539.550049,563.992676 544.059326,566.133545 540.384033,569.470825 
	C537.931946,571.697449 530.034058,570.050354 528.129028,567.221191 
	C525.530090,563.361511 523.243530,559.292542 520.785400,555.336731 
	C518.134644,551.071106 508.013641,548.420654 503.628754,550.759277 
	C501.950623,551.654297 502.108643,553.200928 502.077759,554.660950 
	C502.003906,558.154236 502.007629,561.649231 501.985107,565.143494 
	C501.956635,569.555054 499.029053,570.104553 495.539429,570.129150 
	C491.966492,570.154358 489.830170,568.913330 489.840363,564.958374 
	C489.879303,549.815186 489.847351,534.671875 489.833252,519.528564 
	C489.830139,516.183411 491.250763,513.968018 494.791046,514.000183 
	C505.590240,514.098389 516.429199,513.017395 527.178772,514.706787 
	C536.162415,516.118713 540.198608,520.933594 540.342468,529.976013 
	C540.427368,535.311401 540.799194,540.719727 536.404968,545.284668 
M524.370361,524.779724 
	C518.246216,523.788940 512.076843,524.529602 505.933502,524.291687 
	C503.176117,524.184875 501.607239,525.551575 502.127747,528.176575 
	C502.939972,532.272827 499.516907,537.198547 504.451447,540.460999 
	C504.817291,540.702881 505.428772,540.612854 505.925781,540.610840 
	C510.921082,540.591125 515.924500,540.720398 520.908630,540.469604 
	C524.151428,540.306519 527.490784,539.409973 528.244446,535.641174 
	C529.026550,531.730225 529.614380,527.572632 524.370361,524.779724 
z"/>
<path fill="#000000" opacity="1.000000" stroke="none" 
	d="
M120.881241,517.474487 
	C122.571381,512.542236 126.314262,513.848267 129.409454,514.242310 
	C132.922195,514.689636 132.293732,517.793457 132.300507,520.202637 
	C132.339767,534.188843 132.316147,548.175293 132.318466,562.161621 
	C132.318954,565.197266 132.538040,568.426270 128.818512,569.591003 
	C124.643112,570.898499 120.961838,570.145752 118.102753,566.503784 
	C111.009369,557.468201 103.909706,548.436707 96.709831,539.486267 
	C95.108543,537.495605 93.860321,535.041992 90.926781,533.692444 
	C89.821869,538.763184 90.510933,543.550598 90.403633,548.283142 
	C90.279114,553.774963 90.216614,559.277588 90.423088,564.764404 
	C90.585075,569.069031 88.413582,570.183167 84.604187,570.219116 
	C80.623528,570.256714 78.792282,568.676086 78.821556,564.611511 
	C78.899490,553.789429 78.825928,542.966309 78.815979,532.143555 
	C78.812759,528.646973 78.728844,525.147156 78.851891,521.654846 
	C78.947136,518.951416 78.000786,515.412476 81.709785,514.500977 
	C85.724495,513.514404 90.046913,512.842590 93.203171,516.801819 
	C98.703224,523.701111 104.156036,530.638062 109.647057,537.544556 
	C112.932709,541.677185 116.253365,545.782043 120.827438,549.584717 
	C120.827438,539.031128 120.827438,528.477539 120.881241,517.474487 
z"/>
<path fill="#000000" opacity="1.000000" stroke="none" 
	d="
M426.371796,559.208862 
	C423.947937,548.969543 424.329712,538.967285 425.482605,529.076599 
	C426.570740,519.741333 430.502197,515.805359 439.709839,514.345215 
	C447.933716,513.041077 456.342194,512.938354 464.552551,514.419556 
	C474.661652,516.243225 479.092896,521.857483 479.268280,532.088745 
	C479.379486,538.577637 479.362488,545.070801 479.278931,551.560486 
	C479.137939,562.508545 474.768677,568.165894 464.050049,569.715210 
	C455.510284,570.949646 446.792603,571.069580 438.236603,569.269531 
	C432.714294,568.107788 428.421906,565.234924 426.371796,559.208862 
M437.232666,534.766541 
	C437.235535,540.097778 437.173492,545.430115 437.258057,550.760071 
	C437.359222,557.138245 439.580536,559.443481 446.010651,559.682495 
	C450.335724,559.843262 454.677887,559.848022 459.001617,559.666077 
	C464.538544,559.433044 467.309937,556.824463 467.534058,551.271301 
	C467.789124,544.950989 467.775208,538.606018 467.542877,532.284058 
	C467.347565,526.969727 464.764252,524.579895 459.265717,524.294800 
	C455.110657,524.079407 450.936768,524.091858 446.774689,524.174927 
	C439.465302,524.320862 437.523041,526.352295 437.232666,534.766541 
z"/>
<path fill="#000000" opacity="1.000000" stroke="none" 
	d="
M290.995178,513.929871 
	C295.658936,513.942993 299.824066,513.946045 303.989014,513.972351 
	C307.584564,513.995056 308.997681,515.887817 308.847412,519.390747 
	C308.700806,522.808289 307.410065,524.503479 303.673950,524.420776 
	C295.347595,524.236450 287.013489,524.433167 278.684235,524.333069 
	C275.370758,524.293274 273.148590,524.979004 273.335815,528.970947 
	C273.497345,532.414246 272.486969,536.332214 278.043457,536.324646 
	C284.203583,536.316223 290.365112,536.563782 296.523712,536.494568 
	C299.799805,536.457764 302.367523,536.406006 302.459290,540.963501 
	C302.553009,545.616760 300.431183,546.624329 296.372314,546.466675 
	C290.716095,546.247131 285.044006,546.341187 279.380676,546.428772 
	C274.049072,546.511292 273.458923,547.828308 273.248962,554.810303 
	C273.103760,559.639038 275.866394,559.171570 279.016296,559.135925 
	C287.012329,559.045227 295.010193,559.114380 303.007324,559.124207 
	C306.609100,559.128662 309.136963,560.150635 309.089172,564.505432 
	C309.040314,568.958374 306.694672,570.171204 302.699158,570.124573 
	C292.370697,570.004089 282.038330,570.182312 271.710968,570.021179 
	C263.543060,569.893738 261.725128,567.950378 261.693054,559.893738 
	C261.643311,547.398254 261.621460,534.902283 261.670929,522.406860 
	C261.696289,516.005798 263.565155,514.084229 270.003998,513.961853 
	C276.832581,513.832031 283.665466,513.930908 290.995178,513.929871 
z"/>
<path fill="#000000" opacity="1.000000" stroke="none" 
	d="
M189.396912,520.879517 
	C189.349579,524.974060 187.025162,525.149963 184.234146,524.811890 
	C176.602798,523.887634 168.932037,524.295837 161.275864,524.232910 
	C157.263596,524.199951 154.365433,525.544556 154.379395,530.170166 
	C154.393112,534.718933 157.589981,535.488831 161.157578,535.727112 
	C166.472488,536.082153 171.792709,536.361877 177.105026,536.750671 
	C194.057541,537.991394 194.680969,551.653748 190.525604,563.164307 
	C189.052811,567.244019 184.915848,568.665527 180.833893,569.329041 
	C169.383041,571.190552 157.924759,570.250610 146.485794,569.170776 
	C142.483948,568.793091 142.713226,565.654480 142.778259,562.750183 
	C142.845200,559.760071 144.514893,558.658386 147.317184,558.777588 
	C155.797958,559.138489 164.259491,560.046997 172.766708,559.669373 
	C175.472458,559.549194 178.185013,559.373230 179.835251,556.792542 
	C182.373337,552.823486 179.766113,547.852234 174.782425,547.392029 
	C169.314606,546.887024 163.824234,546.602783 158.338791,546.316406 
	C141.679688,545.446716 140.259048,533.829712 144.135971,521.419617 
	C145.851608,515.927734 151.559738,514.303223 156.815094,513.999084 
	C165.946793,513.470703 175.103149,513.382629 184.258087,514.338989 
	C188.349243,514.766357 189.899521,516.531006 189.396912,520.879517 
z"/>
<path fill="#000000" opacity="1.000000" stroke="none" 
	d="
M202.071060,529.027954 
	C201.995621,512.058594 201.432358,513.971191 216.554810,513.959412 
	C223.862106,513.953735 231.184540,513.471741 238.480713,514.587158 
	C247.662567,515.990967 251.256775,519.383667 252.732132,528.477661 
	C255.307083,544.349426 248.619217,552.249512 232.534180,552.322876 
	C227.874786,552.344116 223.211060,552.459900 218.557205,552.301147 
	C215.291580,552.189758 214.013733,553.528931 214.235641,556.728333 
	C214.384918,558.880737 214.124603,561.061096 214.266785,563.214478 
	C214.553436,567.555908 213.374527,570.317810 208.285141,570.161621 
	C203.124573,570.003174 202.018234,568.991821 202.007507,562.970642 
	C201.987625,551.821289 202.047623,540.671875 202.071060,529.027954 
M220.677185,542.000610 
	C225.174744,541.960083 229.673843,541.977234 234.169327,541.858154 
	C237.037964,541.782166 239.783707,540.739197 240.347382,537.747314 
	C242.034210,528.793884 241.084366,523.691345 231.149872,524.318970 
	C229.490204,524.423828 227.817947,524.311829 226.152344,524.343506 
	C212.020767,524.612305 214.624863,522.205566 214.170914,536.640137 
	C214.037109,540.894958 215.755859,542.420959 220.677185,542.000610 
z"/>
<path fill="#000000" opacity="1.000000" stroke="none" 
	d="
M198.073654,602.077515 
	C198.138580,589.115112 198.138657,589.070862 210.470291,589.090515 
	C218.448700,589.103210 226.429688,588.832886 234.400330,589.642944 
	C243.766312,590.594727 248.833176,595.780823 249.239120,605.200134 
	C249.317856,607.026855 249.298523,608.860291 249.258240,610.689209 
	C249.031342,620.990173 243.550766,626.795532 233.240067,627.261597 
	C227.263000,627.531799 221.254379,627.552429 215.279633,627.269653 
	C211.212631,627.077209 209.875977,628.710144 210.212540,632.510498 
	C210.387924,634.490723 210.135742,636.505554 210.245651,638.495422 
	C210.485840,642.844727 209.237091,645.344116 204.152969,645.379822 
	C198.993118,645.416016 198.005188,642.756348 198.033585,638.498230 
	C198.113449,626.520935 198.069229,614.542908 198.073654,602.077515 
M215.735229,616.961304 
	C219.553131,616.980225 223.371063,617.019531 227.188934,617.013794 
	C235.174835,617.001831 237.374298,615.144348 237.520630,608.338562 
	C237.665939,601.580261 235.280106,599.463257 227.435089,599.401306 
	C225.775208,599.388184 224.114349,599.365051 222.455276,599.403809 
	C208.089828,599.739441 210.550842,596.649658 210.185501,612.264771 
	C210.105972,615.663574 211.356506,617.270264 215.735229,616.961304 
z"/>
<path fill="#000000" opacity="1.000000" stroke="none" 
	d="
M337.569153,642.352051 
	C344.791595,626.060181 352.098816,610.191772 359.115448,594.195801 
	C361.255585,589.316895 365.102051,589.184998 369.382690,589.022156 
	C373.594421,588.862000 376.163666,590.594177 377.909180,594.448425 
	C384.499298,608.999573 391.318115,623.446960 397.954895,637.977295 
	C398.915192,640.079834 401.037842,642.429321 398.359833,644.714600 
	C396.570251,646.241760 389.045258,645.220703 387.600098,643.421387 
	C387.087250,642.782837 386.564331,642.035522 386.389557,641.260437 
	C384.729279,633.897156 379.808289,632.309875 373.022858,633.134460 
	C369.084839,633.613037 365.005554,633.571106 361.054993,633.150879 
	C355.456055,632.555237 352.528687,634.762085 350.903290,640.111084 
	C349.387726,645.098511 343.568604,647.036194 338.767670,644.762451 
	C337.952698,644.376587 337.626770,643.600891 337.569153,642.352051 
M365.426605,606.971313 
	C363.576324,612.011963 360.669556,616.672668 359.381653,622.564880 
	C365.622009,623.147766 371.262726,623.179993 377.011414,622.595886 
	C375.800598,616.645447 370.263458,604.677856 367.672699,602.269409 
	C367.004944,603.652100 366.361481,604.984497 365.426605,606.971313 
z"/>
<path fill="#000000" opacity="1.000000" stroke="none" 
	d="
M281.875977,595.340698 
	C281.620850,590.096741 284.382294,589.063354 288.531036,589.078491 
	C293.157440,589.095398 294.111115,591.726685 294.034210,595.541138 
	C293.977142,598.372070 293.792633,601.233887 294.119812,604.028687 
	C294.397644,606.402161 292.313843,610.212158 295.986053,610.830444 
	C299.656555,611.448486 303.940155,612.208740 306.938782,608.124390 
	C310.681946,603.025818 315.001465,598.343689 318.641785,593.178406 
	C321.977814,588.444946 326.536713,588.553284 331.152924,589.461060 
	C335.213654,590.259583 333.272003,592.796387 331.835266,594.629272 
	C327.418091,600.264404 323.066681,605.968506 318.338135,611.336060 
	C315.232086,614.861816 315.179626,617.495544 318.320679,621.149292 
	C323.525146,627.203369 328.137177,633.766357 333.011108,640.105469 
	C333.825470,641.164673 334.929840,642.205811 334.382233,643.644104 
	C333.721863,645.378723 332.006165,645.104980 330.530334,645.289551 
	C325.123230,645.965454 320.981659,644.545959 317.869659,639.559021 
	C314.707977,634.492554 310.753632,629.915710 307.081116,625.175110 
	C304.840302,622.282593 298.867584,620.902771 295.794250,622.355957 
	C294.070038,623.171265 294.087769,624.679382 294.067841,626.165894 
	C294.014221,630.163696 294.073059,634.163330 293.999756,638.160645 
	C293.885834,644.370117 293.008148,645.108337 287.734009,645.323792 
	C282.421112,645.540833 281.820496,642.436035 281.843201,638.284668 
	C281.920563,624.123596 281.869537,609.961853 281.875977,595.340698 
z"/>
<path fill="#000000" opacity="1.000000" stroke="none" 
	d="
M323.771790,516.509888 
	C336.116364,511.893585 348.409210,513.516296 360.637939,514.795349 
	C364.894562,515.240540 364.358643,518.891968 364.080750,521.852722 
	C363.787476,524.977234 361.540283,525.385681 358.939392,524.963684 
	C351.655365,523.781799 344.312103,524.222229 336.995209,524.287659 
	C330.535309,524.345337 328.186371,526.706543 328.057220,533.010437 
	C327.934387,539.004517 327.963257,545.005676 328.099121,550.999817 
	C328.235107,556.998169 330.534454,559.401001 336.683990,559.612366 
	C343.835205,559.858215 350.992798,559.894470 358.132355,558.945496 
	C360.785095,558.592957 364.115265,557.781616 364.380615,562.333679 
	C364.604980,566.182983 364.262085,569.072205 359.179535,569.460754 
	C349.370026,570.210876 339.581757,571.091064 329.823334,569.356995 
	C321.836456,567.937744 316.991211,563.501099 316.197906,555.544800 
	C315.259613,546.134277 315.008820,536.606628 316.548981,527.171570 
	C317.282928,522.675598 319.396851,519.040039 323.771790,516.509888 
z"/>
<path fill="#000000" opacity="1.000000" stroke="none" 
	d="
M394.000000,513.907593 
	C401.160889,513.913269 407.822784,513.991333 414.482269,513.898254 
	C418.311768,513.844788 420.386810,515.088135 420.308350,519.367737 
	C420.234314,523.410095 418.276947,524.570557 414.648682,524.403625 
	C411.491333,524.258484 408.313324,524.516724 405.160675,524.326965 
	C401.425446,524.102112 400.214630,525.753052 400.259277,529.352661 
	C400.397705,540.507935 400.317719,551.666077 400.299042,562.823059 
	C400.288513,569.107483 399.434875,569.914001 394.336060,570.140625 
	C388.958984,570.379700 388.570221,567.222656 388.618652,563.081665 
	C388.747192,552.092834 388.509888,541.098938 388.704498,530.112061 
	C388.778961,525.908081 387.596771,523.880371 383.061005,524.291870 
	C379.758270,524.591492 376.398712,524.203491 373.076965,524.370483 
	C369.518097,524.549377 368.332550,522.699951 368.326904,519.528687 
	C368.321198,516.340576 369.146698,513.927856 373.018066,513.943848 
	C379.845215,513.972107 386.672699,513.924255 394.000000,513.907593 
z"/>
<path fill="#000000" opacity="1.000000" stroke="none" 
	d="
M270.190186,596.206665 
	C270.169556,610.675842 270.101013,624.672546 270.156647,638.668823 
	C270.172638,642.688660 269.410828,645.326294 264.433350,645.381165 
	C259.587006,645.434570 257.873474,643.440796 257.898743,638.867065 
	C257.977905,624.537720 257.969086,610.207214 257.867157,595.878052 
	C257.836151,591.522583 259.040558,588.998169 264.055664,588.973572 
	C269.020233,588.949280 270.633636,591.222351 270.190186,596.206665 
z"/>
<path fill="#000000" opacity="1.000000" stroke="none" 
	d="
M55.914207,515.052002 
	C58.091949,513.716919 60.109291,513.921509 62.096195,513.988892 
	C64.825882,514.081421 66.394524,515.245239 66.383720,518.261230 
	C66.327087,534.063049 66.320213,549.865295 66.360512,565.667175 
	C66.369736,569.285706 64.255180,570.245850 61.208588,570.150574 
	C58.469414,570.065002 54.835918,570.749695 54.809265,566.560364 
	C54.703480,549.934448 54.862114,533.306885 54.958096,516.680115 
	C54.960667,516.234985 55.366161,515.792236 55.914207,515.052002 
z"/>
<path fill="#000000" opacity="1.000000" stroke="none" 
	d="
M483.966492,368.428467 
	C483.265442,359.523651 487.446442,352.777771 492.788605,347.037933 
	C504.410919,334.550568 518.730347,330.089508 535.447876,334.732819 
	C540.224487,336.059540 542.268250,338.955353 541.071045,342.580261 
	C539.685181,346.776337 536.361328,346.874115 532.897278,345.824188 
	C515.491089,340.548462 498.912842,351.776459 494.554779,366.650208 
	C492.658386,373.122345 488.561523,373.739655 483.966492,368.428467 
z"/>
<path fill="#000000" opacity="1.000000" stroke="none" 
	d="
M529.873047,404.775024 
	C543.757996,399.835358 552.355774,390.998108 553.925781,376.179077 
	C554.275635,372.876526 556.067749,370.506348 559.837280,370.788086 
	C563.471008,371.059631 564.976562,373.412323 565.215027,376.812195 
	C566.290588,392.147736 549.318787,412.825684 533.914612,414.985168 
	C531.541504,415.317871 529.476013,414.756500 528.313599,412.661194 
	C526.781799,409.899994 527.143066,407.219543 529.873047,404.775024 
z"/>
</svg>